<?xml version="1.0" encoding="UTF-8" standalone="no"?>
<!-- Created with Inkscape (http://www.inkscape.org/) -->
<svg xmlns:dc="http://purl.org/dc/elements/1.1/" xmlns:cc="http://creativecommons.org/ns#" xmlns:rdf="http://www.w3.org/1999/02/22-rdf-syntax-ns#" xmlns:svg="http://www.w3.org/2000/svg" xmlns="http://www.w3.org/2000/svg" xmlns:sodipodi="http://sodipodi.sourceforge.net/DTD/sodipodi-0.dtd" xmlns:inkscape="http://www.inkscape.org/namespaces/inkscape" width="140" height="188.38625" id="svg2" version="1.1" inkscape:version="0.48.2 r9819" sodipodi:docname="AJAX.svg">
  <defs id="defs4">
    <linearGradient id="linearGradient3772">
      <stop style="stop-color:#6633CC;stop-opacity:1;" offset="0" id="stop3774"/>
      <stop style="stop-color:#01648d;stop-opacity:1;" offset="1" id="stop3776"/>
    </linearGradient>
  </defs>
  <sodipodi:namedview id="base" pagecolor="#dddfff" bordercolor="#666666" borderopacity="1.0" inkscape:pageopacity="0.0" inkscape:pageshadow="2" inkscape:zoom="0.79958885" inkscape:cx="419.46012" inkscape:cy="193.46425" inkscape:document-units="px" inkscape:current-layer="layer1" showgrid="false" inkscape:window-width="580" inkscape:window-height="1004" inkscape:window-x="-8" inkscape:window-y="-8" inkscape:window-maximized="1" fit-margin-top="0" fit-margin-left="0" fit-margin-right="0" fit-margin-bottom="0"/>
  <metadata id="metadata7">
    <rdf:RDF>
      <cc:Work rdf:about="">
        <dc:format>image/svg+xml</dc:format>
        <dc:type rdf:resource="http://purl.org/dc/dcmitype/StillImage"/>
        <dc:title/>
      </cc:Work>
    </rdf:RDF>
  </metadata>
  <g inkscape:label="Capa 1" inkscape:groupmode="layer" id="layer1" transform="translate(-5.9251389,-858.67896)">
    <path style="fill:#FFFFFF;fill-opacity:1;stroke:none" d="m 75.447301,1047.0652 c -66.8280499,0 -69.4035699,-69.92303 -69.5028399,-92.84843 l -0.0191,0 c 0,-0.38086 -4.8e-4,-0.91312 0,-1.33513 -5e-4,-0.42862 0,-0.96791 0,-1.3542 l 0.0191,0 c 0.0993,-22.9254 2.67479,-92.84848 69.5028399,-92.84848 66.501519,0 69.568869,71.97724 69.712659,92.84848 l 0.019,0 c 0,0.36999 0.001,0.92377 0,1.3542 6.1e-4,0.42356 0,0.97035 0,1.33513 l -0.019,0 c -0.14379,20.87124 -3.21114,92.84843 -69.712659,92.84843 z" id="path2996" inkscape:connector-curvature="0"/>
    <path style="fill:none;stroke:#CCCCCC;stroke-width:13.42755318;stroke-linecap:butt;stroke-linejoin:miter;stroke-miterlimit:4;stroke-opacity:1;stroke-dasharray:none" d="m 37.507291,914.28125 70.437349,70.43735 -31.035609,31.0356 0,-124.68219 30.765729,30.76573 -69.897589,70.16747" id="path2984" inkscape:connector-curvature="0" sodipodi:nodetypes="cccccc"/>
    
  </g>
</svg>